<?xml version="1.0" encoding="UTF-8"?>
<svg xmlns="http://www.w3.org/2000/svg" xmlns:xlink="http://www.w3.org/1999/xlink" viewBox="0 0 96 96" width="96px" height="96px">
<g id="surface61312494">
<path style=" stroke:none;fill-rule:nonzero;fill:rgb(38.039216%,85.490197%,98.431373%);fill-opacity:1;" d="M 55.800781 48 C 55.800781 52.3125 52.3125 55.800781 48 55.800781 C 43.6875 55.800781 40.199219 52.3125 40.199219 48 C 40.199219 43.6875 43.6875 40.199219 48 40.199219 C 52.3125 40.199219 55.800781 43.6875 55.800781 48 Z M 55.800781 48 "/>
<path style=" stroke:none;fill-rule:nonzero;fill:rgb(38.039216%,85.490197%,98.431373%);fill-opacity:1;" d="M 48 56.398438 C 43.371094 56.398438 39.601562 52.632812 39.601562 48 C 39.601562 43.367188 43.371094 39.601562 48 39.601562 C 52.628906 39.601562 56.398438 43.367188 56.398438 48 C 56.398438 52.632812 52.628906 56.398438 48 56.398438 Z M 48 40.800781 C 44.027344 40.800781 40.800781 44.027344 40.800781 48 C 40.800781 51.972656 44.027344 55.199219 48 55.199219 C 51.972656 55.199219 55.199219 51.972656 55.199219 48 C 55.199219 44.027344 51.972656 40.800781 48 40.800781 Z M 48 40.800781 "/>
<path style=" stroke:none;fill-rule:nonzero;fill:rgb(38.039216%,85.490197%,98.431373%);fill-opacity:1;" d="M 29.367188 90.605469 C 27.316406 90.605469 25.445312 90.132812 23.808594 89.207031 C 21.074219 87.65625 19.183594 84.980469 18.1875 81.261719 C 17.027344 76.933594 17.167969 71.183594 18.585938 64.609375 C 7.148438 60.675781 0.601562 54.636719 0.601562 48 C 0.601562 41.363281 7.144531 35.324219 18.585938 31.390625 C 17.164062 24.816406 17.027344 19.066406 18.183594 14.738281 C 19.179688 11.015625 21.070312 8.34375 23.808594 6.792969 C 25.441406 5.867188 27.3125 5.394531 29.363281 5.394531 C 34.628906 5.394531 41.234375 8.671875 48.003906 14.632812 C 54.769531 8.679688 61.371094 5.40625 66.632812 5.40625 C 68.683594 5.40625 70.554688 5.875 72.191406 6.800781 C 74.921875 8.351562 76.8125 11.019531 77.808594 14.734375 C 78.96875 19.0625 78.832031 24.8125 77.410156 31.390625 C 88.851562 35.324219 95.398438 41.363281 95.398438 48 C 95.398438 54.636719 88.851562 60.675781 77.410156 64.609375 C 78.828125 71.1875 78.96875 76.9375 77.808594 81.265625 C 76.8125 84.980469 74.921875 87.648438 72.191406 89.199219 C 70.554688 90.125 68.6875 90.59375 66.632812 90.59375 C 61.371094 90.59375 54.765625 87.320312 48 81.367188 C 41.234375 87.328125 34.628906 90.605469 29.367188 90.605469 Z M 23.203125 66.007812 C 22.015625 71.667969 21.882812 76.503906 22.824219 80.023438 C 23.476562 82.453125 24.601562 84.140625 26.179688 85.03125 C 27.082031 85.542969 28.15625 85.804688 29.367188 85.804688 C 33.441406 85.804688 38.804688 83.066406 44.515625 78.082031 C 41.652344 75.199219 38.859375 71.933594 36.199219 68.371094 C 31.601562 67.871094 27.234375 67.078125 23.203125 66.007812 Z M 51.488281 78.078125 C 57.195312 83.058594 62.558594 85.796875 66.632812 85.796875 C 67.84375 85.796875 68.917969 85.535156 69.824219 85.023438 C 71.394531 84.132812 72.519531 82.449219 73.171875 80.023438 C 74.113281 76.503906 73.980469 71.667969 72.792969 66.007812 C 68.757812 67.078125 64.386719 67.875 59.792969 68.371094 C 57.136719 71.9375 54.34375 75.199219 51.488281 78.078125 Z M 42.679688 68.871094 C 44.421875 71.003906 46.203125 72.992188 48 74.800781 C 49.789062 72.992188 51.574219 71.003906 53.316406 68.871094 C 51.527344 68.957031 49.746094 69 48 69 C 46.253906 69 44.472656 68.957031 42.679688 68.871094 Z M 38.820312 63.816406 C 41.8125 64.070312 44.902344 64.199219 48 64.199219 C 51.101562 64.199219 54.1875 64.070312 57.175781 63.816406 C 58.957031 61.316406 60.660156 58.695312 62.230469 56.023438 C 63.753906 53.4375 65.183594 50.738281 66.488281 48 C 65.1875 45.269531 63.757812 42.570312 62.234375 39.976562 C 60.664062 37.3125 58.964844 34.691406 57.175781 32.183594 C 54.1875 31.929688 51.105469 31.800781 48 31.800781 C 44.894531 31.800781 41.808594 31.929688 38.824219 32.183594 C 37.035156 34.6875 35.332031 37.308594 33.761719 39.980469 C 32.238281 42.570312 30.804688 45.269531 29.503906 48.003906 C 30.804688 50.730469 32.234375 53.429688 33.757812 56.023438 C 35.324219 58.679688 37.023438 61.300781 38.820312 63.816406 Z M 68.988281 53.734375 C 68.140625 55.351562 67.261719 56.933594 66.367188 58.457031 C 65.464844 59.992188 64.503906 61.539062 63.503906 63.058594 C 66.351562 62.621094 69.078125 62.058594 71.628906 61.378906 C 70.921875 58.921875 70.035156 56.355469 68.988281 53.734375 Z M 24.363281 61.378906 C 26.917969 62.054688 29.640625 62.617188 32.488281 63.058594 C 31.480469 61.527344 30.519531 59.980469 29.625 58.457031 C 28.730469 56.933594 27.847656 55.355469 27.003906 53.738281 C 25.964844 56.347656 25.078125 58.910156 24.363281 61.378906 Z M 71.777344 48 C 73.613281 52.070312 75.105469 56.089844 76.230469 59.972656 C 85.109375 56.847656 90.601562 52.289062 90.601562 48 C 90.601562 43.710938 85.109375 39.152344 76.230469 36.027344 C 75.109375 39.910156 73.613281 43.929688 71.777344 48 Z M 19.765625 36.03125 C 10.886719 39.152344 5.398438 43.710938 5.398438 48 C 5.398438 52.289062 10.886719 56.847656 19.769531 59.972656 C 20.890625 56.089844 22.382812 52.066406 24.214844 48.003906 C 22.382812 43.9375 20.886719 39.914062 19.765625 36.03125 Z M 24.363281 34.621094 C 25.078125 37.085938 25.960938 39.652344 27.003906 42.265625 C 27.847656 40.652344 28.726562 39.070312 29.625 37.546875 C 30.527344 36.011719 31.488281 34.46875 32.488281 32.941406 C 29.640625 33.378906 26.917969 33.945312 24.363281 34.621094 Z M 63.507812 32.941406 C 64.511719 34.472656 65.472656 36.015625 66.371094 37.546875 C 67.265625 39.066406 68.144531 40.648438 68.992188 42.265625 C 70.035156 39.652344 70.921875 37.089844 71.632812 34.621094 C 69.078125 33.941406 66.351562 33.378906 63.507812 32.941406 Z M 29.363281 10.195312 C 28.152344 10.195312 27.078125 10.457031 26.175781 10.96875 C 24.601562 11.863281 23.472656 13.546875 22.824219 15.980469 C 21.878906 19.5 22.011719 24.335938 23.203125 29.992188 C 27.234375 28.921875 31.605469 28.128906 36.203125 27.628906 C 38.863281 24.0625 41.65625 20.804688 44.515625 17.921875 C 38.804688 12.933594 33.4375 10.195312 29.363281 10.195312 Z M 59.792969 27.628906 C 64.390625 28.125 68.757812 28.921875 72.792969 29.992188 C 73.984375 24.332031 74.117188 19.496094 73.171875 15.976562 C 72.523438 13.550781 71.394531 11.867188 69.824219 10.976562 C 68.917969 10.464844 67.84375 10.203125 66.632812 10.203125 C 62.558594 10.203125 57.199219 12.941406 51.488281 17.921875 C 54.34375 20.800781 57.136719 24.0625 59.792969 27.628906 Z M 48 27 C 49.746094 27 51.527344 27.042969 53.316406 27.128906 C 51.578125 25 49.792969 23.011719 48.003906 21.203125 C 46.207031 23.015625 44.425781 25.003906 42.683594 27.128906 C 44.472656 27.042969 46.253906 27 48 27 Z M 48 27 "/>
<path style=" stroke:none;fill-rule:nonzero;fill:rgb(38.039216%,85.490197%,98.431373%);fill-opacity:1;" d="M 29.363281 5.996094 C 34.757812 5.996094 41.359375 9.488281 48.003906 15.4375 C 54.644531 9.492188 61.246094 6.003906 66.632812 6.003906 C 68.578125 6.003906 70.351562 6.449219 71.894531 7.324219 C 74.484375 8.789062 76.277344 11.335938 77.230469 14.890625 C 78.523438 19.589844 78.253906 25.378906 76.710938 31.785156 C 87.777344 35.484375 94.800781 41.316406 94.800781 48 C 94.800781 54.683594 87.777344 60.515625 76.707031 64.214844 C 78.316406 71.140625 78.589844 77.085938 77.230469 81.109375 C 76.277344 84.664062 74.484375 87.210938 71.898438 88.675781 C 70.351562 89.550781 68.945312 90 67 90 C 67 90 66.5 90 66.5 90 C 61.109375 90 54.640625 86.507812 48 80.566406 C 41.359375 86.515625 34.757812 90.003906 29.367188 90.003906 C 27.421875 90.003906 25.648438 89.558594 24.105469 88.683594 C 21.515625 87.214844 19.71875 84.664062 18.765625 81.109375 C 17.339844 76.648438 17.625 70.785156 19.289062 64.214844 C 8.222656 60.515625 1.199219 54.683594 1.199219 48 C 1.199219 41.320312 8.222656 35.484375 19.285156 31.785156 C 18.460938 28.117188 17.933594 24.707031 17.917969 21.601562 C 17.902344 19.144531 18.238281 16.859375 18.765625 14.890625 C 19.71875 11.332031 21.511719 8.785156 24.101562 7.316406 C 25.644531 6.4375 27.417969 5.996094 29.363281 5.996094 M 22.75 30.738281 C 26.921875 29.589844 31.554688 28.722656 36.527344 28.195312 C 39.386719 24.34375 42.378906 20.882812 45.390625 17.894531 C 39.546875 12.679688 33.851562 9.59375 29.363281 9.59375 C 28.046875 9.59375 26.875 9.878906 25.878906 10.445312 C 24.160156 11.421875 22.9375 13.230469 22.242188 15.824219 C 21.214844 19.664062 21.449219 24.859375 22.75 30.738281 M 73.246094 30.734375 C 74.546875 24.859375 74.78125 19.664062 73.753906 15.820312 C 73.058594 13.230469 71.835938 11.425781 70.121094 10.453125 C 69.125 9.890625 67.949219 9.605469 66.632812 9.605469 C 62.148438 9.605469 56.457031 12.683594 50.613281 17.894531 C 53.625 20.882812 56.613281 24.34375 59.46875 28.195312 C 64.441406 28.722656 69.074219 29.589844 73.246094 30.734375 M 41.371094 27.800781 C 43.535156 27.671875 45.703125 27.558594 47.957031 27.558594 C 50.210938 27.558594 52.464844 27.671875 54.625 27.800781 C 52.457031 25.0625 50.230469 22.566406 48 20.355469 C 45.773438 22.566406 43.542969 25.0625 41.371094 27.800781 M 48 64.800781 C 51.3125 64.800781 54.484375 64.65625 57.5 64.390625 C 59.324219 61.847656 61.085938 59.152344 62.746094 56.328125 C 64.371094 53.566406 65.839844 50.777344 67.152344 48 C 65.839844 45.222656 64.371094 42.433594 62.75 39.675781 C 61.085938 36.847656 59.324219 34.152344 57.5 31.613281 C 54.484375 31.34375 51.3125 31.199219 48 31.199219 C 44.6875 31.199219 41.511719 31.34375 38.496094 31.613281 C 36.671875 34.152344 34.90625 36.847656 33.246094 39.675781 C 31.621094 42.433594 30.152344 45.226562 28.84375 48 C 30.152344 50.777344 31.621094 53.566406 33.242188 56.324219 C 34.90625 59.152344 36.667969 61.847656 38.492188 64.386719 C 41.511719 64.65625 44.683594 64.800781 48 64.800781 M 69.054688 43.695312 C 70.40625 40.445312 71.523438 37.253906 72.375 34.199219 C 69.3125 33.359375 65.925781 32.660156 62.261719 32.152344 C 63.496094 33.984375 64.695312 35.882812 65.851562 37.847656 C 66.996094 39.792969 68.058594 41.746094 69.054688 43.695312 M 26.9375 43.695312 C 27.933594 41.746094 28.996094 39.792969 30.140625 37.847656 C 31.296875 35.882812 32.5 33.984375 33.734375 32.152344 C 30.070312 32.660156 26.683594 33.359375 23.621094 34.203125 C 24.472656 37.253906 25.589844 40.445312 26.9375 43.695312 M 75.824219 60.746094 C 85.515625 57.464844 91.199219 52.640625 91.199219 48 C 91.199219 43.359375 85.515625 38.535156 75.824219 35.253906 C 74.683594 39.339844 73.101562 43.632812 71.121094 48 C 73.101562 52.367188 74.683594 56.660156 75.824219 60.746094 M 20.171875 60.746094 C 21.3125 56.660156 22.890625 52.367188 24.875 48.003906 C 22.890625 43.636719 21.3125 39.34375 20.171875 35.257812 C 10.480469 38.539062 4.800781 43.363281 4.800781 48 C 4.800781 52.640625 10.480469 57.460938 20.171875 60.746094 M 62.261719 63.847656 C 65.925781 63.339844 69.3125 62.644531 72.375 61.800781 C 71.519531 58.746094 70.402344 55.554688 69.054688 52.304688 C 68.058594 54.253906 66.996094 56.207031 65.851562 58.152344 C 64.695312 60.117188 63.496094 62.015625 62.261719 63.847656 M 33.730469 63.847656 C 32.496094 62.015625 31.296875 60.117188 30.140625 58.152344 C 28.996094 56.210938 27.933594 54.257812 26.9375 52.308594 C 25.589844 55.558594 24.472656 58.75 23.621094 61.800781 C 26.683594 62.640625 30.066406 63.335938 33.730469 63.847656 M 29.367188 86.402344 C 33.855469 86.402344 39.546875 83.320312 45.390625 78.105469 C 42.375 75.121094 39.386719 71.65625 36.527344 67.800781 C 31.554688 67.277344 26.921875 66.410156 22.753906 65.261719 C 21.453125 71.140625 21.21875 76.335938 22.246094 80.175781 C 22.9375 82.769531 24.164062 84.578125 25.882812 85.554688 C 26.875 86.117188 28.050781 86.402344 29.367188 86.402344 M 66.632812 86.394531 C 67.953125 86.394531 69.125 86.109375 70.121094 85.546875 C 71.835938 84.574219 73.058594 82.769531 73.75 80.179688 C 74.777344 76.335938 74.546875 71.140625 73.246094 65.265625 C 69.070312 66.410156 64.441406 67.277344 59.46875 67.804688 C 56.609375 71.65625 53.621094 75.117188 50.609375 78.105469 C 56.457031 83.3125 62.144531 86.394531 66.632812 86.394531 M 48 75.648438 C 50.226562 73.433594 52.457031 70.9375 54.625 68.199219 C 52.464844 68.328125 50.355469 68.601562 48.097656 68.601562 C 45.84375 68.601562 43.53125 68.328125 41.367188 68.199219 C 43.539062 70.9375 45.769531 73.4375 48 75.648438 M 28.9375 4.886719 C 26.78125 4.886719 25.238281 5.292969 23.511719 6.269531 C 20.632812 7.902344 18.644531 10.699219 17.605469 14.582031 C 16.453125 18.886719 16.554688 24.542969 17.890625 31 C 6.503906 35.027344 0 41.191406 0 48 C 0 54.8125 6.503906 60.972656 17.890625 65 C 16.554688 71.457031 16.457031 77.113281 17.609375 81.417969 C 18.648438 85.296875 20.632812 88.09375 23.515625 89.730469 C 25.242188 90.710938 27.316406 91.125 29.476562 91.125 C 34.859375 91.125 41.179688 88.082031 48 82.167969 C 54.820312 88.078125 61.246094 91.195312 66.632812 91.195312 C 68.789062 91.195312 70.761719 90.699219 72.488281 89.722656 C 75.363281 88.089844 77.347656 85.296875 78.386719 81.421875 C 79.539062 77.117188 79.441406 71.457031 78.105469 65.003906 C 89.496094 60.972656 96 54.8125 96 48 C 96 41.1875 89.496094 35.027344 78.105469 30.996094 C 79.445312 24.542969 79.542969 18.882812 78.390625 14.578125 C 77.347656 10.703125 75.363281 7.910156 72.484375 6.277344 C 70.757812 5.300781 68.789062 4.804688 66.632812 4.804688 C 61.25 4.804688 54.824219 7.921875 48.003906 13.835938 C 41.179688 7.917969 34.722656 4.882812 29.335938 4.882812 Z M 23.664062 29.253906 C 23.109375 26.464844 22.738281 23.851562 22.71875 21.558594 C 22.699219 19.492188 22.980469 17.699219 23.402344 16.132812 C 24.007812 13.863281 25.042969 12.300781 26.472656 11.488281 C 27.28125 11.027344 28.273438 10.714844 29.378906 10.714844 C 33.195312 10.714844 38.21875 13.328125 43.640625 17.957031 C 40.972656 20.683594 38.367188 23.738281 35.878906 27.058594 C 31.578125 27.539062 27.476562 28.273438 23.664062 29.253906 Z M 52.367188 17.960938 C 57.785156 13.335938 62.820312 10.804688 66.632812 10.804688 C 67.738281 10.804688 68.714844 11.039062 69.527344 11.5 C 70.953125 12.308594 71.988281 13.867188 72.59375 16.132812 C 73.644531 19.511719 73.507812 24.007812 72.332031 29.25 C 68.519531 28.273438 64.417969 27.539062 60.117188 27.058594 C 57.632812 23.742188 55.027344 20.6875 52.367188 17.960938 Z M 44.007812 26.472656 C 45.324219 24.910156 46.660156 23.4375 48 22.058594 C 49.34375 23.4375 50.679688 24.910156 51.992188 26.472656 C 50.648438 26.425781 49.3125 26.398438 48 26.398438 C 46.6875 26.398438 45.351562 26.425781 44.007812 26.472656 Z M 39.148438 32.761719 C 42.035156 32.519531 45.007812 32.351562 48 32.351562 C 50.988281 32.351562 53.960938 32.519531 56.847656 32.761719 C 58.566406 35.183594 60.203125 37.710938 61.714844 40.28125 C 63.179688 42.777344 64.5625 45.371094 65.824219 48 C 64.5625 50.628906 63.179688 53.222656 61.714844 55.71875 C 60.199219 58.289062 58.566406 60.816406 56.847656 63.238281 C 53.960938 63.480469 50.988281 63.800781 48 63.800781 C 45.007812 63.800781 42.035156 63.476562 39.144531 63.238281 C 37.425781 60.816406 35.789062 58.289062 34.277344 55.714844 C 32.808594 53.222656 31.429688 50.628906 30.171875 48 C 31.429688 45.371094 32.8125 42.773438 34.277344 40.28125 C 35.792969 37.710938 37.429688 35.179688 39.148438 32.761719 Z M 68.90625 40.828125 C 68.246094 39.605469 67.570312 38.40625 66.886719 37.242188 C 66.203125 36.078125 65.488281 34.910156 64.746094 33.75 C 66.875 34.113281 68.925781 34.546875 70.882812 35.046875 C 70.320312 36.925781 69.660156 38.859375 68.90625 40.828125 Z M 25.113281 35.046875 C 27.070312 34.546875 29.121094 34.113281 31.25 33.75 C 30.507812 34.910156 29.792969 36.078125 29.105469 37.238281 C 28.421875 38.40625 27.746094 39.605469 27.085938 40.828125 C 26.335938 38.859375 25.675781 36.925781 25.113281 35.046875 Z M 72.4375 48 C 74.136719 44.203125 75.542969 40.449219 76.625 36.808594 C 84.910156 39.832031 90 44.066406 90 48 C 90 51.933594 84.910156 56.167969 76.625 59.191406 C 75.542969 55.550781 74.136719 51.792969 72.4375 48 Z M 19.371094 59.191406 C 11.089844 56.167969 6 51.933594 6 48 C 6 44.066406 11.089844 39.832031 19.371094 36.808594 C 20.453125 40.449219 21.859375 44.207031 23.554688 48 C 21.859375 51.792969 20.453125 55.550781 19.371094 59.191406 Z M 64.742188 62.25 C 65.484375 61.089844 66.203125 59.921875 66.886719 58.761719 C 67.570312 57.59375 68.246094 56.394531 68.90625 55.171875 C 69.660156 57.140625 70.320312 59.074219 70.882812 60.957031 C 68.925781 61.453125 66.871094 61.890625 64.742188 62.25 Z M 25.113281 60.953125 C 25.675781 59.074219 26.335938 57.140625 27.085938 55.175781 C 27.746094 56.394531 28.421875 57.59375 29.105469 58.761719 C 29.789062 59.921875 30.503906 61.089844 31.246094 62.25 C 29.121094 61.886719 27.070312 61.453125 25.113281 60.953125 Z M 29.367188 85.203125 C 28.261719 85.203125 27.285156 84.96875 26.472656 84.507812 C 25.046875 83.699219 24.011719 82.136719 23.40625 79.867188 C 22.40625 76.453125 22.519531 71.957031 23.667969 66.746094 C 27.476562 67.722656 31.578125 68.460938 35.875 68.9375 C 38.367188 72.257812 40.972656 75.3125 43.636719 78.042969 C 38.21875 82.671875 33.183594 85.203125 29.367188 85.203125 Z M 60.117188 68.941406 C 64.417969 68.460938 68.519531 67.726562 72.332031 66.75 C 73.65625 72.4375 73.761719 76.96875 72.589844 79.867188 C 71.984375 82.132812 70.953125 83.691406 69.527344 84.5 C 68.714844 84.960938 67.742188 85.195312 66.632812 85.195312 L 66.632812 86.394531 L 66.632812 85.195312 C 62.816406 85.195312 57.78125 82.664062 52.363281 78.042969 C 55.027344 75.3125 57.628906 72.257812 60.117188 68.941406 Z M 48 73.945312 C 46.65625 72.566406 45.320312 71.089844 44.003906 69.527344 C 45.347656 69.574219 46.683594 69.601562 48 69.601562 C 49.3125 69.601562 50.648438 69.574219 51.992188 69.527344 C 50.679688 71.089844 49.34375 72.566406 48 73.945312 Z M 48 73.945312 "/>
</g>
</svg>
