<?xml version="1.0" encoding="UTF-8"?>
<svg xmlns="http://www.w3.org/2000/svg" xmlns:xlink="http://www.w3.org/1999/xlink" viewBox="0 0 96 96" width="96px" height="96px">
<g id="surface61405318">
<path style=" stroke:none;fill-rule:nonzero;fill:rgb(17.254902%,55.686277%,73.333335%);fill-opacity:1;" d="M 48 9 C 26.398438 9 9 26.398438 9 48 C 9 69.601562 26.398438 87 48 87 C 69.601562 87 87 69.601562 87 48 C 87 26.398438 69.601562 9 48 9 Z M 48 15 C 66.300781 15 81 29.699219 81 48 C 81 66.300781 66.300781 81 48 81 C 29.699219 81 15 66.300781 15 48 C 15 29.699219 29.699219 15 48 15 Z M 48.625 27.132812 C 47.277344 27.363281 45.902344 31.5 45.902344 31.5 C 45.902344 31.5 42.300781 30.902344 39.300781 33.902344 C 38.699219 34.503906 38.101562 34.796875 37.199219 35.097656 C 36.902344 35.398438 36.601562 35.402344 36 37.199219 C 34.800781 39.902344 37.800781 43.199219 37.800781 43.199219 C 31.5 47.699219 31.796875 53.699219 32.097656 55.199219 C 28.199219 58.5 29.699219 62.703125 30.597656 63.902344 C 31.199219 64.800781 31.796875 64.5 32.097656 64.5 C 32.097656 64.800781 30.597656 66.601562 32.097656 67.199219 C 33.597656 68.101562 36 68.402344 37.199219 67.199219 C 38.101562 66.300781 38.402344 64.496094 38.699219 63.597656 C 39 63.296875 39 64.199219 40.199219 64.800781 C 40.199219 64.800781 38.101562 65.699219 39 67.800781 C 39.300781 68.398438 40.199219 69 42 69 C 42.601562 69 49.796875 68.699219 51.597656 68.097656 C 52.796875 67.796875 53.097656 67.199219 53.097656 67.199219 C 60.898438 65.101562 62.398438 61.796875 67.800781 60.597656 C 69.597656 60.296875 69.597656 57.296875 66.300781 57.597656 C 63.898438 57.597656 61.800781 58.800781 60 60 C 57 61.800781 54.902344 62.097656 54.902344 61.800781 C 54.601562 61.5 56.097656 57.898438 54.597656 54 C 53.097656 49.800781 50.402344 48.597656 50.699219 48.300781 C 51.601562 46.800781 53.699219 44.402344 54.597656 40.199219 C 54.898438 37.5 54.902344 33.003906 53.699219 30.902344 C 53.402344 30.300781 51.597656 31.5 51.597656 31.5 C 51.597656 31.5 49.800781 27.597656 49.199219 27.300781 C 49.011719 27.148438 48.820312 27.101562 48.625 27.132812 Z M 48.625 27.132812 "/>
</g>
</svg>
